<?xml version="1.0" encoding="UTF-8"?>
<svg version="1.1" xmlns="http://www.w3.org/2000/svg" width="157" height="148">
<path d="M0 0 C51.81 0 103.62 0 157 0 C157 48.84 157 97.68 157 148 C105.19 148 53.38 148 0 148 C0 99.16 0 50.32 0 0 Z " fill="#504F52" transform="translate(0,0)"/>
<path d="M0 0 C22.11 0 44.22 0 67 0 C67 0.33 67 0.66 67 1 C66.22398438 1.13535156 65.44796875 1.27070313 64.6484375 1.41015625 C52.60364434 3.81049093 42.14020999 8.62613067 32.76953125 16.6171875 C31 18 31 18 28 19 C28 19.66 28 20.32 28 21 C27.34 21 26.68 21 26 21 C25.73703125 21.57621094 25.4740625 22.15242188 25.203125 22.74609375 C23.93366475 25.1242709 22.47008088 26.98988002 20.75 29.0625 C9.2137409 43.78861868 4.44387706 61.51756159 6.30859375 80.0703125 C9.17592881 101.13126915 18.27979661 118.73403589 35.12890625 131.9609375 C39.54015967 135.09382769 44.14063123 137.63536228 49 140 C50.134375 140.556875 51.26875 141.11375 52.4375 141.6875 C70.60577723 148.38107582 89.35384673 148.03139762 107.12890625 140.234375 C126.97444373 131.05731457 140.06758018 116.33737423 148 96 C154.36557828 78.20184312 151.68879679 57.89081422 144 41 C134.6636996 22.08922827 119.96608535 10.98696994 100.75 3.1875 C96.73758395 1.91690158 93.17925479 1.37314775 89 1 C89 0.67 89 0.34 89 0 C111.44 0 133.88 0 157 0 C157 48.84 157 97.68 157 148 C105.19 148 53.38 148 0 148 C0 99.16 0 50.32 0 0 Z " fill="#FCFCFC" transform="translate(0,0)"/>
<path d="M0 0 C-0.66 0.66 -1.32 1.32 -2 2 C-1.04480469 2.27972656 -0.08960937 2.55945313 0.89453125 2.84765625 C14.16944882 6.89511846 24.05433156 13.22492621 34 23 C34.63808594 23.62519531 35.27617187 24.25039063 35.93359375 24.89453125 C46.13982505 35.69176926 52.5908933 51.68138127 53.12890625 66.56640625 C53.08636719 67.36949219 53.04382813 68.17257813 53 69 C46.47132563 66.90149752 40.06597589 64.54881097 33.67382812 62.06982422 C30.81749568 60.97814789 28.23712039 60.02733471 25.1875 59.67578125 C23 59 23 59 21.515625 56.48828125 C21.09796875 55.44027344 20.6803125 54.39226563 20.25 53.3125 C17.38253757 47.05621834 14.15981192 43.96844269 8 41 C1.71526568 38.90508856 -5.67164138 38.8388416 -11.93359375 41.0234375 C-16.68465169 43.64121981 -19.17264001 45.98489826 -21.625 50.8125 C-23.0390625 53.16015625 -23.0390625 53.16015625 -25 55 C-28.06856748 55.60533775 -30.95796907 55.74278321 -34.07983398 55.7644043 C-49.72260598 55.94055771 -65.07291467 61.4144992 -79.69140625 66.546875 C-82.77323142 67.62053461 -85.76433423 68.49711534 -89 69 C-89.91250245 49.61439239 -85.32363858 37.62461549 -73.125 22.25 C-72.42375 21.5075 -71.7225 20.765 -71 20 C-70.34 20 -69.68 20 -69 20 C-69 19.34 -69 18.68 -69 18 C-49.29374652 0.27880869 -25.63521292 -3.72657257 0 0 Z " fill="#EA3F36" transform="translate(97,1)"/>
<path d="M0 0 C3.09371636 -0.24535049 5.52336477 -0.35027332 8.52734375 0.4375 C10.50122863 2.50370467 11.70074938 4.59924832 13.0703125 7.1015625 C15.6410835 11.22306667 18.94397141 13.04314073 23.52734375 14.4375 C32.41717812 15.69559352 40.18291457 14.85456407 47.52734375 9.4375 C48.20796875 8.48875 48.88859375 7.54 49.58984375 6.5625 C50.54890625 5.510625 50.54890625 5.510625 51.52734375 4.4375 C62.49724312 4.26337461 73.56804359 9.21097984 83.52734375 13.4375 C82.17809606 23.9523268 78.68239462 33.18789409 70.52734375 40.25 C54.16628386 52.55996298 36.63490545 55.86662589 16.52734375 54.4375 C12.17714514 53.65000494 8.50658054 52.33963163 4.52734375 50.4375 C3.46386719 49.95152344 2.40039062 49.46554688 1.3046875 48.96484375 C-14.35020142 41.21979344 -25.49508122 28.84456786 -31.47265625 12.4375 C-32.03329379 10.04544651 -32.3087445 7.89617628 -32.47265625 5.4375 C-21.64454102 2.65630602 -11.04178866 1.39109148 0 0 Z " fill="#FDFDFD" transform="translate(64.47265625,74.5625)"/>
<path d="M0 0 C0.43699219 1.23363281 0.43699219 1.23363281 0.8828125 2.4921875 C7.67937877 21.00107552 17.67828278 33.76225237 35.6875 42.3125 C43.72192528 45.96451149 50.56731879 47.32533537 59.3125 47.25 C60.19873047 47.25773437 61.08496094 47.26546875 61.99804688 47.2734375 C76.20791888 47.23197908 88.45904296 43.10828604 99.84375 34.55078125 C101.83576739 33.11811657 103.77677594 32.02571474 106 31 C99.78305249 45.11765163 84.28229561 54.41656741 70.625 59.96484375 C52.88649855 66.33169873 33.08919594 65.35382669 15.9375 57.5703125 C-1.51100722 48.24278604 -15.35795331 33.91539383 -22 15 C-22.57828565 12.27687879 -22.84213017 9.7890336 -23 7 C-5.97969543 0 -5.97969543 0 0 0 Z " fill="#A09E9F" transform="translate(32,81)"/>
<path d="M0 0 C3.8111266 3.34635506 4.4011881 4.89037111 5 9.9375 C4.80904053 15.96957257 1.99518906 20.90891847 -2.3046875 25.046875 C-8.34392227 29.79366653 -14.47513779 32.91999576 -22.28515625 32.6796875 C-26.03693277 31.930694 -27.82979557 29.98808965 -30.4375 27.25 C-32.31410422 23.49679155 -31.95886784 19.33704442 -31.4375 15.25 C-28.58875331 7.96845017 -22.73543178 3.08218432 -16.0625 -0.625 C-10.14727198 -2.46076042 -5.59744251 -2.8496071 0 0 Z " fill="#FEFBFB" transform="translate(54.4375,14.75)"/>
<path d="M0 0 C5.12663014 2.31219548 8.36990743 5.15387737 10.92578125 10.265625 C11.73627964 16.49488403 11.26061019 21.40728043 7.53515625 26.56640625 C4.15215549 30.13826385 0.56409943 32.0912277 -4.37890625 32.41796875 C-9.53384069 32.07951346 -13.1397708 30.742579 -17.07421875 27.265625 C-20.48928083 22.68225221 -21.76117628 19.20096956 -21.44921875 13.46875 C-20.6630334 8.84991108 -18.82406995 5.76495521 -15.2734375 2.72265625 C-10.25517272 -0.75602439 -6.01119137 -2.12825608 0 0 Z " fill="#D3D2D3" transform="translate(101.07421875,48.734375)"/>
<path d="M0 0 C0.99 0.495 0.99 0.495 2 1 C0.79557292 2.39973958 -0.40885417 3.79947917 -1.61328125 5.19921875 C-3.12128922 7.03615647 -3.12128922 7.03615647 -4.26171875 9.54980469 C-6 12 -6 12 -8.3815918 12.77954102 C-9.31140869 12.85358154 -10.24122559 12.92762207 -11.19921875 13.00390625 C-12.23554443 13.10227783 -13.27187012 13.20064941 -14.33959961 13.30200195 C-15.9968103 13.43094849 -15.9968103 13.43094849 -17.6875 13.5625 C-34.3043602 15.21153749 -49.28085586 19.54196384 -65 25 C-65.2215587 28.77282819 -65.27184069 29.65825741 -62.8125 32.75 C-59.932009 35.0543928 -58.58331542 35.63248047 -55 36 C-53.66344949 36.32018996 -52.32944391 36.65147771 -51 37 C-53.79035046 38.00380916 -56.58214855 39.0031945 -59.375 40 C-60.56609375 40.42925781 -60.56609375 40.42925781 -61.78125 40.8671875 C-62.54179688 41.13789062 -63.30234375 41.40859375 -64.0859375 41.6875 C-65.1385376 42.06455078 -65.1385376 42.06455078 -66.21240234 42.44921875 C-68 43 -68 43 -70 43 C-65.33705301 62.27351421 -53.92799343 78.76932313 -37.01660156 89.27075195 C-20.60384865 98.94919539 -1.91073279 101.32670354 16.546875 96.9765625 C30.49427393 93.03216235 41.69617455 86.08841447 52 76 C52.55429688 75.48179688 53.10859375 74.96359375 53.6796875 74.4296875 C61.4629943 66.39394913 66.52335112 53.73214515 69 43 C67.865625 42.71125 66.73125 42.4225 65.5625 42.125 C64.386875 41.75375 63.21125 41.3825 62 41 C61.67 40.34 61.34 39.68 61 39 C63.97 39.66 66.94 40.32 70 41 C70.33 38.03 70.66 35.06 71 32 C71.33 32 71.66 32 72 32 C72.99238544 48.9440625 65.31477338 65.0420563 54.265625 77.61328125 C42.40628693 90.10648049 29.42370249 96.60146818 13 101 C12.35732178 101.17885742 11.71464355 101.35771484 11.05249023 101.54199219 C-5.4693973 105.22880806 -23.8745317 100.65694711 -38 92 C-56.04420425 79.93313872 -68.15946521 63.37902867 -73 42 C-74.51473478 31.67866767 -74.84858335 21.12829636 -72 11 C-71.34 10.34 -70.68 9.68 -70 9 C-70.33 14.28 -70.66 19.56 -71 25 C-69.89527344 24.56429687 -68.79054688 24.12859375 -67.65234375 23.6796875 C-50.87282857 17.20620501 -32.78562703 10.72403874 -14.625 10.9375 C-13.88894531 10.94201172 -13.15289062 10.94652344 -12.39453125 10.95117188 C-10.59631842 10.96284858 -8.79814803 10.98077989 -7 11 C-6.72414063 10.24332031 -6.44828125 9.48664062 -6.1640625 8.70703125 C-4.62976031 5.13900636 -2.56233179 2.89948071 0 0 Z " fill="#201D1E" transform="translate(79,45)"/>
<path d="M0 0 C3.55680172 2.10504591 4.69468936 3.08406808 6 7 C6.57279236 14.1026253 6.57279236 14.1026253 4.125 17.9375 C0.43713826 21.51689522 -2.55324457 21.33208892 -7.515625 21.2890625 C-11.00210977 20.88340232 -12.70043595 19.59628199 -15 17 C-16.52199443 12.43401671 -16.74716734 8.60107286 -14.6875 4.1875 C-10.70884753 -0.97001246 -6.02630295 -0.79774026 0 0 Z " fill="#FDFDFD" transform="translate(101,54)"/>
<path d="M0 0 C0.99 0.495 0.99 0.495 2 1 C0.79557292 2.39973958 -0.40885417 3.79947917 -1.61328125 5.19921875 C-3.12128922 7.03615647 -3.12128922 7.03615647 -4.26171875 9.54980469 C-6 12 -6 12 -8.3815918 12.77954102 C-9.31140869 12.85358154 -10.24122559 12.92762207 -11.19921875 13.00390625 C-12.23554443 13.10227783 -13.27187012 13.20064941 -14.33959961 13.30200195 C-15.9968103 13.43094849 -15.9968103 13.43094849 -17.6875 13.5625 C-34.3043602 15.21153749 -49.28085586 19.54196384 -65 25 C-65.2215587 28.77282819 -65.27184069 29.65825741 -62.8125 32.75 C-59.932009 35.0543928 -58.58331542 35.63248047 -55 36 C-53.66344949 36.32018996 -52.32944391 36.65147771 -51 37 C-58.35074375 39.71548094 -65.14868332 41.65259661 -73 42 C-74.247046 31.53372104 -74.8910631 21.27933548 -72 11 C-71.34 10.34 -70.68 9.68 -70 9 C-70.33 14.28 -70.66 19.56 -71 25 C-69.89527344 24.56429687 -68.79054688 24.12859375 -67.65234375 23.6796875 C-50.87282857 17.20620501 -32.78562703 10.72403874 -14.625 10.9375 C-13.88894531 10.94201172 -13.15289062 10.94652344 -12.39453125 10.95117188 C-10.59631842 10.96284858 -8.79814803 10.98077989 -7 11 C-6.72414063 10.24332031 -6.44828125 9.48664062 -6.1640625 8.70703125 C-4.62976031 5.13900636 -2.56233179 2.89948071 0 0 Z " fill="#352D2F" transform="translate(79,45)"/>
<path d="M0 0 C15.89401979 1.1773348 29.30295836 10.65417329 40 22 C45.99231831 29.24262974 50.63142905 37.22850545 54 46 C54.31839844 46.7734375 54.63679688 47.546875 54.96484375 48.34375 C57.75638551 56.06229865 57.27081166 63.91577041 57 72 C56.67 71.01 56.34 70.02 56 69 C54.35 68.67 52.7 68.34 51 68 C51.99 67.67 52.98 67.34 54 67 C54.99 67.495 54.99 67.495 56 68 C51.75731028 45.34071858 44.74981705 26.12962708 25.06347656 12.35424805 C18.34187691 7.87536841 11.6346272 5.19430729 3.88671875 2.97265625 C1 2 1 2 0 0 Z " fill="#2E2223" transform="translate(94,2)"/>
<path d="M0 0 C0.66 0.33 1.32 0.66 2 1 C1.18595703 1.48919922 1.18595703 1.48919922 0.35546875 1.98828125 C-0.35996094 2.42527344 -1.07539062 2.86226562 -1.8125 3.3125 C-2.87404297 3.95638672 -2.87404297 3.95638672 -3.95703125 4.61328125 C-5.90365177 5.93460111 -7.35842231 7.32810293 -9 9 C-10.27874688 9.95504735 -11.57130639 10.89179809 -12.875 11.8125 C-15.58660195 13.8013404 -17.78320829 15.74158365 -19.875 18.375 C-20.57625 19.24125 -21.2775 20.1075 -22 21 C-22.66 21 -23.32 21 -24 21 C-24.26941406 21.72574219 -24.53882813 22.45148437 -24.81640625 23.19921875 C-25.97830553 25.94866358 -27.33987132 28.29613321 -28.9375 30.8125 C-30.90083324 34.00351364 -32.50988382 37.026579 -33.75 40.5625 C-35 44 -35 44 -37 45 C-35.58297521 33.46136954 -28.1309706 22.1309706 -20 14 C-19.34 14 -18.68 14 -18 14 C-18 13.34 -18 12.68 -18 12 C-16.18279604 10.45037785 -14.29394128 8.98419737 -12.375 7.5625 C-11.33085938 6.78003906 -10.28671875 5.99757813 -9.2109375 5.19140625 C-6.20743143 3.14156816 -3.34886598 1.41535167 0 0 Z " fill="#2B1E1F" transform="translate(46,7)"/>
<path d="M0 0 C0.33 0 0.66 0 1 0 C1.82720208 14.12370954 -3.57180843 24.83071573 -10 37 C-10.66 36.67 -11.32 36.34 -12 36 C-10.71040839 32.64230756 -9.24739677 29.48808425 -7.5625 26.3125 C-5.04505435 21.35953741 -3.40377117 16.36400367 -2 11 C-3.7015625 10.566875 -3.7015625 10.566875 -5.4375 10.125 C-6.613125 9.75375 -7.78875 9.3825 -9 9 C-9.33 8.34 -9.66 7.68 -10 7 C-5.545 7.99 -5.545 7.99 -1 9 C-0.67 6.03 -0.34 3.06 0 0 Z " fill="#2B292A" transform="translate(150,77)"/>
<path d="M0 0 C0.33 0.66 0.66 1.32 1 2 C-5.31993105 10.40361404 -12.03103228 18.91016709 -22 23 C-20.58888594 19.60747707 -19.05860685 18.08047926 -16.0625 16 C-9.90845964 11.41954977 -5.04040524 5.73758278 0 0 Z " fill="#1D181A" transform="translate(138,113)"/>
<path d="M0 0 C0.83660156 0.06058594 1.67320313 0.12117187 2.53515625 0.18359375 C11.35497053 0.8184641 20.17647279 1.41917958 29 2 C29 2.66 29 3.32 29 4 C25.85434954 4.08845016 22.70902625 4.14086835 19.5625 4.1875 C18.68400391 4.21263672 17.80550781 4.23777344 16.90039062 4.26367188 C10.71986094 4.33209102 5.72459913 3.32816113 0 1 C0 0.67 0 0.34 0 0 Z " fill="#363234" transform="translate(59,143)"/>
<path d="M0 0 C0.90878906 0.48919922 0.90878906 0.48919922 1.8359375 0.98828125 C7.75531598 4.0754648 13.54413955 6.31048758 20 8 C19.34 8.66 18.68 9.32 18 10 C13.30758218 9.6840349 9.75805761 8.09587453 5.625 5.9375 C4.56539062 5.38964844 3.50578125 4.84179688 2.4140625 4.27734375 C1.61742187 3.85582031 0.82078125 3.43429688 0 3 C0 2.01 0 1.02 0 0 Z " fill="#2C2829" transform="translate(41,134)"/>
<path d="M0 0 C1 3 1 3 0.00390625 5.26171875 C-0.47175781 6.06222656 -0.94742188 6.86273438 -1.4375 7.6875 C-2.14712891 8.89986328 -2.14712891 8.89986328 -2.87109375 10.13671875 C-3.24363281 10.75160156 -3.61617187 11.36648437 -4 12 C-4.66 11.67 -5.32 11.34 -6 11 C-4.54955729 6.89041233 -2.48889248 3.56741255 0 0 Z " fill="#262525" transform="translate(144,102)"/>
<path d="M0 0 C1.97566188 1.97566188 2.89579072 3.52337094 4.125 6 C4.47820313 6.70125 4.83140625 7.4025 5.1953125 8.125 C6 10 6 10 6 12 C3 11 3 11 1.83203125 8.71484375 C1.49558594 7.79832031 1.15914062 6.88179688 0.8125 5.9375 C0.46832031 5.01839844 0.12414062 4.09929687 -0.23046875 3.15234375 C-0.48441406 2.44207031 -0.73835937 1.73179688 -1 1 C-0.67 0.67 -0.34 0.34 0 0 Z " fill="#2B292A" transform="translate(11,98)"/>
<path d="M0 0 C0.66 0.66 1.32 1.32 2 2 C1.61233695 5.58588324 0.41433748 8.69987921 -1 12 C-1.66 11.67 -2.32 11.34 -3 11 C-2.01 7.37 -1.02 3.74 0 0 Z " fill="#424040" transform="translate(147,91)"/>
<path d="M0 0 C3.59648384 2.62446118 6.11692258 4.91999893 8 9 C7.67 9.99 7.34 10.98 7 12 C5.82767315 10.3790787 4.6622923 8.75313167 3.5 7.125 C2.8503125 6.22007813 2.200625 5.31515625 1.53125 4.3828125 C0 2 0 2 0 0 Z " fill="#201C1D" transform="translate(133,25)"/>
<path d="M0 0 C0.33 0.99 0.66 1.98 1 3 C-2.465 4.485 -2.465 4.485 -6 6 C-6.66 5.34 -7.32 4.68 -8 4 C-5.36 2.68 -2.72 1.36 0 0 Z " fill="#2A2628" transform="translate(115,134)"/>
<path d="M0 0 C3.36720387 1.39332574 4.9859524 2.9789286 7 6 C4 6 4 6 1.8125 4.125 C0 2 0 2 0 0 Z " fill="#372C2C" transform="translate(127,19)"/>
<path d="M0 0 C0.556875 0.226875 1.11375 0.45375 1.6875 0.6875 C-1.125 2.25 -1.125 2.25 -4.3125 3.6875 C-5.3025 3.3575 -6.2925 3.0275 -7.3125 2.6875 C-2.88173077 -0.38942308 -2.88173077 -0.38942308 0 0 Z " fill="#191517" transform="translate(107.3125,139.3125)"/>
</svg>
